<?xml version="1.0" encoding="UTF-8"?>
<svg xmlns="http://www.w3.org/2000/svg" xmlns:xlink="http://www.w3.org/1999/xlink" viewBox="0 0 40 40" width="40px" height="40px">
<g id="surface6419025">
<path style=" stroke:none;fill-rule:nonzero;fill:rgb(6.666667%,32.941177%,57.254905%);fill-opacity:1;" d="M 10 37.5 C 5.863281 37.5 2.5 34.136719 2.5 30 L 2.5 10 C 2.5 5.863281 5.863281 2.5 10 2.5 L 30 2.5 C 34.136719 2.5 37.5 5.863281 37.5 10 L 37.5 30 C 37.5 34.136719 34.136719 37.5 30 37.5 Z M 10 37.5 "/>
<path style=" stroke:none;fill-rule:nonzero;fill:rgb(27.843139%,53.333336%,78.039217%);fill-opacity:1;" d="M 30 38 L 10 38 C 5.589844 38 2 34.410156 2 30 L 2 10 C 2 5.589844 5.589844 2 10 2 L 30 2 C 34.410156 2 38 5.589844 38 10 L 38 30 C 38 34.410156 34.410156 38 30 38 Z M 10 3 C 6.140625 3 3 6.140625 3 10 L 3 30 C 3 33.859375 6.140625 37 10 37 L 30 37 C 33.859375 37 37 33.859375 37 30 L 37 10 C 37 6.140625 33.859375 3 30 3 Z M 10 3 "/>
<path style=" stroke:none;fill-rule:nonzero;fill:rgb(100%,100%,100%);fill-opacity:1;" d="M 30.492188 16 C 30.492188 18.222656 28.714844 20 26.492188 20 C 24.269531 20 22.492188 18.222656 22.492188 16 C 22.492188 13.777344 24.269531 12 26.492188 12 C 28.714844 12 30.492188 13.777344 30.492188 16 Z M 30.492188 16 "/>
<path style=" stroke:none;fill-rule:nonzero;fill:rgb(6.666667%,32.941177%,57.254905%);fill-opacity:1;" d="M 28.492188 16 C 28.492188 14.878906 27.613281 14 26.492188 14 C 25.371094 14 24.492188 14.878906 24.492188 16 C 24.492188 17.121094 25.371094 18 26.492188 18 C 27.613281 18 28.492188 17.121094 28.492188 16 Z M 28.492188 16 "/>
<path style=" stroke:none;fill-rule:nonzero;fill:rgb(100%,100%,100%);fill-opacity:1;" d="M 11 12 L 13 12 L 13 20 L 11 20 Z M 11 12 "/>
<path style=" stroke:none;fill-rule:nonzero;fill:rgb(100%,100%,100%);fill-opacity:1;" d="M 11.921875 15 L 15.140625 15 L 15.140625 17 L 11.921875 17 Z M 11.921875 15 "/>
<path style=" stroke:none;fill-rule:nonzero;fill:rgb(100%,100%,100%);fill-opacity:1;" d="M 22.800781 18 C 22.800781 19.109375 21.832031 20 20.382812 20 L 17 20 L 17 12 L 20.382812 12 C 21.832031 12 22.800781 12.890625 22.800781 14 C 22.800781 15.109375 22.21875 16 21.351562 16 C 22.171875 16 22.800781 16.890625 22.800781 18 Z M 22.800781 18 "/>
<path style=" stroke:none;fill-rule:nonzero;fill:rgb(6.666667%,32.941177%,57.254905%);fill-opacity:1;" d="M 19 14 L 19 15.25 L 20.09375 15.25 C 20.445312 15.25 20.75 14.957031 20.75 14.625 C 20.75 14.292969 20.445312 14 20.09375 14 Z M 19 14 "/>
<path style=" stroke:none;fill-rule:nonzero;fill:rgb(100%,100%,100%);fill-opacity:1;" d="M 14.5 12 L 16.5 12 L 16.5 20 L 14.5 20 Z M 14.5 12 "/>
<path style=" stroke:none;fill-rule:nonzero;fill:rgb(6.666667%,32.941177%,57.254905%);fill-opacity:1;" d="M 19 16.75 L 19 18 L 20.09375 18 C 20.445312 18 20.75 17.707031 20.75 17.375 C 20.75 17.042969 20.445312 16.75 20.09375 16.75 Z M 19 16.75 "/>
<path style=" stroke:none;fill-rule:nonzero;fill:rgb(100%,100%,100%);fill-opacity:1;" d="M 28.023438 16 C 28.023438 15.140625 27.351562 14.46875 26.492188 14.46875 C 25.636719 14.46875 24.960938 15.140625 24.960938 16 C 24.960938 16.859375 25.636719 17.53125 26.492188 17.53125 C 27.347656 17.53125 28.023438 16.859375 28.023438 16 Z M 28.023438 16 "/>
<path style=" stroke:none;fill-rule:nonzero;fill:rgb(100%,100%,100%);fill-opacity:1;" d="M 14.265625 20.855469 C 13.644531 20.976562 13.117188 21.320312 12.726562 21.78125 C 12.101562 21.058594 11.117188 20.644531 10.046875 20.855469 C 8.714844 21.113281 7.800781 22.363281 7.800781 23.722656 L 7.800781 27.550781 C 7.800781 27.9375 8.113281 28.25 8.5 28.25 L 9.199219 28.25 L 9.199219 23.609375 C 9.199219 22.832031 9.832031 22.199219 10.609375 22.199219 C 11.386719 22.199219 12.019531 22.832031 12.019531 23.609375 L 12.019531 27.550781 C 12.019531 27.9375 12.332031 28.25 12.71875 28.25 L 13.417969 28.25 L 13.417969 23.609375 C 13.417969 22.832031 14.050781 22.199219 14.828125 22.199219 C 15.605469 22.199219 16.234375 22.832031 16.234375 23.609375 L 16.234375 27.550781 C 16.234375 27.9375 16.550781 28.25 16.9375 28.25 L 17.636719 28.25 L 17.636719 23.609375 C 17.636719 21.878906 16.0625 20.503906 14.265625 20.855469 Z M 14.265625 20.855469 "/>
<path style=" stroke:none;fill-rule:nonzero;fill:rgb(100%,100%,100%);fill-opacity:1;" d="M 25.199219 28.25 L 24.5 28.25 C 24.113281 28.25 23.800781 27.9375 23.800781 27.550781 L 23.800781 21.449219 C 23.800781 21.0625 24.113281 20.75 24.5 20.75 L 25.199219 20.75 Z M 25.199219 28.25 "/>
<path style=" stroke:none;fill-rule:nonzero;fill:rgb(100%,100%,100%);fill-opacity:1;" d="M 21.5 28.386719 C 19.613281 28.386719 18.082031 26.644531 18.082031 24.5 C 18.082031 22.355469 19.613281 20.613281 21.5 20.613281 C 23.386719 20.613281 24.917969 22.355469 24.917969 24.5 C 24.917969 26.644531 23.386719 28.386719 21.5 28.386719 Z M 21.5 22.011719 C 20.386719 22.011719 19.480469 23.128906 19.480469 24.5 C 19.480469 25.871094 20.386719 26.988281 21.5 26.988281 C 22.613281 26.988281 23.519531 25.871094 23.519531 24.5 C 23.519531 23.128906 22.613281 22.011719 21.5 22.011719 Z M 21.5 22.011719 "/>
<path style=" stroke:none;fill-rule:nonzero;fill:rgb(100%,100%,100%);fill-opacity:1;" d="M 25.441406 28.199219 L 26.675781 28.199219 C 26.996094 28.199219 27.292969 28.050781 27.480469 27.792969 L 28.765625 26.054688 C 28.886719 25.890625 29.128906 25.890625 29.246094 26.054688 L 30.53125 27.792969 C 30.71875 28.050781 31.019531 28.199219 31.335938 28.199219 L 32.570312 28.199219 L 30.3125 25.140625 C 30.054688 24.789062 30.054688 24.308594 30.3125 23.953125 L 32.679688 20.75 L 31.445312 20.75 C 31.125 20.75 30.828125 20.902344 30.640625 21.15625 L 29.246094 23.039062 C 29.128906 23.203125 28.886719 23.203125 28.765625 23.039062 L 27.375 21.15625 C 27.183594 20.898438 26.886719 20.75 26.570312 20.75 L 25.335938 20.75 L 27.699219 23.953125 C 27.960938 24.308594 27.960938 24.789062 27.699219 25.140625 Z M 25.441406 28.199219 "/>
<path style=" stroke:none;fill-rule:nonzero;fill:rgb(100%,100%,100%);fill-opacity:1;" d="M 32.75 20.75 L 33.5 20.75 L 33.5 21.148438 L 32.75 21.148438 Z M 32.75 20.75 "/>
</g>
</svg>
